<?xml version="1.0" encoding="utf-8"?>
<!-- Generator: Adobe Illustrator 15.0.0, SVG Export Plug-In . SVG Version: 6.00 Build 0)  -->
<!DOCTYPE svg PUBLIC "-//W3C//DTD SVG 1.1//EN" "http://www.w3.org/Graphics/SVG/1.1/DTD/svg11.dtd">
<svg version="1.1" id="Layer_1" xmlns="http://www.w3.org/2000/svg" xmlns:xlink="http://www.w3.org/1999/xlink" x="0px" y="0px"
	 width="250px" height="100px" viewBox="0 0 250 100" enable-background="new 0 0 250 100" xml:space="preserve">
<g>
	<g>
		<path fill="none" stroke="#F7600D" stroke-width="2" d="M30.299,44.129V17.386c0,0,45.888,50.109,56.025,49.549
			c0,0,9.571,0.561,7.882-10.98"/>
		<path fill="none" stroke="#F7600D" stroke-width="2" d="M69.352,44.129V17.386c0,0-45.888,50.109-56.025,49.549
			c0,0-9.57,0.561-7.882-10.98"/>
		<path fill="none" stroke="#F7600D" stroke-width="2" d="M69.352,57.68v26.743c0,0-45.888-50.11-56.025-49.547
			c0,0-9.57-0.562-7.882,10.982"/>
		<path fill="none" stroke="#F7600D" stroke-width="2" d="M30.299,57.68v26.743c0,0,45.888-50.11,56.025-49.547
			c0,0,9.571-0.562,7.882,10.982"/>
	</g>
	<g>
		<path fill="#FFFFFF" d="M132.521,35.917h-0.088l-11.463,28.291l-11.421-28.291h-0.087l-5.623,27.201h-2.004l7.062-33.957
			l12.074,29.902l12.118-29.902l7.062,33.957h-2.005L132.521,35.917z"/>
		<path fill="#FFFFFF" d="M161.585,63.118h-1.96V59.5h-0.087c-1.482,2.571-4.708,4.053-7.673,4.053
			c-6.103,0-9.938-4.75-9.938-10.636c0-5.884,3.791-10.374,9.85-10.374c3.096,0,6.06,1.395,7.761,3.922h0.087v-3.487h1.96V63.118z
			 M143.888,52.917c0,4.621,3.053,8.807,7.935,8.807c5.143,0,7.933-4.186,7.933-9.024c0-4.663-3.183-8.325-8.064-8.325
			C147.069,44.375,143.888,48.559,143.888,52.917z"/>
		<path fill="#FFFFFF" d="M170.256,45.594h0.087c0.784-1.831,2.224-3.051,4.357-3.051c0.785,0,1.439,0.174,2.137,0.479l-1.045,1.743
			c-0.48-0.261-0.872-0.391-1.396-0.391c-4.401,0-4.14,5.491-4.14,8.456v10.288h-1.962V42.979h1.962V45.594z"/>
		<path fill="#FFFFFF" d="M205.429,37.443c-2.614-2.703-6.233-4.359-10.024-4.359c-7.324,0-13.252,6.364-13.252,13.6
			s5.972,13.6,13.339,13.6c3.704,0,7.323-1.742,9.938-4.359v4.535c-2.833,2.047-6.32,3.225-9.807,3.225
			c-9.285,0-17.132-7.54-17.132-16.87c0-9.416,7.716-17.131,17.132-17.131c3.661,0,6.888,1.046,9.807,3.226V37.443z"/>
		<path fill="#FFFFFF" d="M230.312,63.118h-3.488v-2.834h-0.086c-1.788,2.267-4.187,3.4-7.062,3.4
			c-6.015,0-9.809-5.101-9.809-10.768c0-5.841,3.707-10.853,9.853-10.853c2.789,0,5.317,1.308,7.019,3.487h0.086v-2.92h3.488V63.118
			z M213.442,52.655c0,4.011,2.354,7.805,6.713,7.805c4.49,0,6.844-3.619,6.844-7.761c0-4.097-2.572-7.41-6.887-7.41
			C216.058,45.29,213.442,48.82,213.442,52.655z"/>
		<path fill="#FFFFFF" d="M240.157,63.118h-3.486V27.156h3.486V63.118z"/>
	</g>
	<g>
		<path fill="#FFFFFF" d="M105.162,78.028h-1.206v-6.186h1.641c1.295,0,2.141,0.517,2.141,1.92c0,1.312-0.713,1.953-1.978,1.953
			h-0.598V78.028z M105.162,74.715h0.246c0.714,0,1.099-0.156,1.099-0.961c0-0.795-0.459-0.91-1.132-0.91h-0.213V74.715z"/>
		<path fill="#FFFFFF" d="M114.116,78.028h-1.461l-1.5-2.494h-0.017v2.494h-1.206v-6.186h1.632c1.222,0,2.067,0.541,2.067,1.861
			c0,0.788-0.434,1.576-1.263,1.715L114.116,78.028z M111.138,74.688h0.156c0.664,0,1.133-0.196,1.133-0.951
			c0-0.763-0.485-0.909-1.125-0.909h-0.164V74.688z"/>
		<path fill="#FFFFFF" d="M118.919,78.192c-1.887,0-3.061-1.442-3.061-3.264c0-1.839,1.215-3.251,3.061-3.251
			c1.846,0,3.061,1.412,3.061,3.251C121.98,76.75,120.806,78.192,118.919,78.192z M118.919,72.868c-1.141,0-1.814,1.01-1.814,2.01
			c0,0.952,0.477,2.126,1.814,2.126c1.336,0,1.813-1.174,1.813-2.126C120.733,73.878,120.059,72.868,118.919,72.868z"/>
		<path fill="#FFFFFF" d="M125.421,72.894v1.361h1.749v1.05h-1.749v2.724h-1.205v-6.186h3.068v1.051H125.421z"/>
		<path fill="#FFFFFF" d="M130.864,72.894v1.361h1.921v1.05h-1.921v1.674h1.993v1.05h-3.199v-6.186h3.199v1.051H130.864z"/>
		<path fill="#FFFFFF" d="M138.217,73.205c-0.229-0.312-0.524-0.509-0.927-0.509c-0.386,0-0.755,0.294-0.755,0.697
			c0,1.041,2.454,0.606,2.454,2.683c0,1.239-0.772,2.116-2.035,2.116c-0.854,0-1.477-0.491-1.904-1.205l0.779-0.763
			c0.166,0.476,0.6,0.901,1.116,0.901c0.493,0,0.796-0.418,0.796-0.894c0-0.641-0.59-0.821-1.074-1.011
			c-0.796-0.327-1.379-0.729-1.379-1.689c0-1.024,0.763-1.854,1.805-1.854c0.551,0,1.313,0.271,1.69,0.69L138.217,73.205z"/>
		<path fill="#FFFFFF" d="M144.178,73.205c-0.229-0.312-0.525-0.509-0.928-0.509c-0.386,0-0.755,0.294-0.755,0.697
			c0,1.041,2.454,0.606,2.454,2.683c0,1.239-0.771,2.116-2.035,2.116c-0.853,0-1.478-0.491-1.903-1.205l0.778-0.763
			c0.165,0.476,0.601,0.901,1.116,0.901c0.493,0,0.797-0.418,0.797-0.894c0-0.641-0.592-0.821-1.075-1.011
			c-0.795-0.327-1.379-0.729-1.379-1.689c0-1.024,0.763-1.854,1.806-1.854c0.55,0,1.312,0.271,1.689,0.69L144.178,73.205z"/>
		<path fill="#FFFFFF" d="M148.43,78.028h-1.205v-6.186h1.205V78.028z"/>
		<path fill="#FFFFFF" d="M153.717,78.192c-1.888,0-3.062-1.442-3.062-3.264c0-1.839,1.214-3.251,3.062-3.251
			c1.846,0,3.06,1.412,3.06,3.251C156.776,76.75,155.603,78.192,153.717,78.192z M153.717,72.868c-1.141,0-1.813,1.01-1.813,2.01
			c0,0.952,0.476,2.126,1.813,2.126c1.337,0,1.813-1.174,1.813-2.126C155.53,73.878,154.857,72.868,153.717,72.868z"/>
		<path fill="#FFFFFF" d="M159.012,71.678h0.869l3.258,4.323h0.017v-4.158h1.207v6.31h-0.87l-3.258-4.324h-0.017v4.2h-1.206V71.678z
			"/>
		<path fill="#FFFFFF" d="M168.148,76.724l-0.509,1.305h-1.271l2.412-6.351h0.936l2.346,6.351h-1.288l-0.475-1.305H168.148z
			 M169.19,73.492h-0.017l-0.682,2.247h1.469L169.19,73.492z"/>
		<path fill="#FFFFFF" d="M175.281,76.979h1.706v1.05h-2.913v-6.186h1.207V76.979z"/>
		<path fill="#FFFFFF" d="M187.217,78.028h-1.461l-1.501-2.494h-0.018v2.494h-1.207v-6.186h1.634c1.224,0,2.067,0.541,2.067,1.861
			c0,0.788-0.435,1.576-1.264,1.715L187.217,78.028z M184.237,74.688h0.156c0.664,0,1.132-0.196,1.132-0.951
			c0-0.763-0.483-0.909-1.124-0.909h-0.164V74.688z"/>
		<path fill="#FFFFFF" d="M190.458,72.894v1.361h1.922v1.05h-1.922v1.674h1.995v1.05h-3.199v-6.186h3.199v1.051H190.458z"/>
		<path fill="#FFFFFF" d="M199.037,73.484c-0.338-0.411-0.846-0.656-1.363-0.656c-1.157,0-1.821,1.065-1.821,2.132
			c0,1.041,0.689,2.084,1.813,2.084c0.517,0,1.033-0.27,1.371-0.655v1.436c-0.452,0.212-0.903,0.368-1.404,0.368
			c-1.739,0-3.028-1.501-3.028-3.208c0-1.755,1.24-3.307,3.054-3.307c0.483,0,0.96,0.131,1.379,0.361V73.484z"/>
		<path fill="#FFFFFF" d="M205.661,78.028h-1.46l-1.502-2.494h-0.017v2.494h-1.207v-6.186h1.634c1.224,0,2.067,0.541,2.067,1.861
			c0,0.788-0.435,1.576-1.263,1.715L205.661,78.028z M202.683,74.688h0.156c0.664,0,1.132-0.196,1.132-0.951
			c0-0.763-0.483-0.909-1.124-0.909h-0.164V74.688z"/>
		<path fill="#FFFFFF" d="M207.665,71.843h1.206v3.462c0,0.763,0.066,1.839,1.091,1.839c1.027,0,1.093-1.076,1.093-1.839v-3.462
			h1.204v3.7c0,1.509-0.639,2.649-2.297,2.649c-1.657,0-2.297-1.141-2.297-2.649V71.843z"/>
		<path fill="#FFFFFF" d="M215.965,78.028h-1.205v-6.186h1.205V78.028z"/>
		<path fill="#FFFFFF" d="M220.497,78.028h-1.207v-5.135h-1.248v-1.051h3.701v1.051h-1.246V78.028z"/>
		<path fill="#FFFFFF" d="M225.035,78.028h-1.206v-6.186h1.206V78.028z"/>
		<path fill="#FFFFFF" d="M227.557,71.678h0.87l3.256,4.323h0.018v-4.158h1.205v6.31h-0.869l-3.257-4.324h-0.018v4.2h-1.205V71.678z
			"/>
		<path fill="#FFFFFF" d="M240.893,74.739v0.155c0,1.748-0.895,3.298-2.814,3.298c-1.806,0-2.946-1.526-2.946-3.232
			c0-1.764,1.174-3.282,3.02-3.282c1.051,0,1.97,0.534,2.445,1.478l-1.066,0.574c-0.246-0.559-0.771-0.984-1.41-0.984
			c-1.166,0-1.74,1.188-1.74,2.215c0,1.025,0.582,2.166,1.748,2.166c0.755,0,1.387-0.656,1.411-1.402h-1.312v-0.984H240.893z"/>
	</g>
</g>
</svg>
